<svg xmlns="http://www.w3.org/2000/svg" viewBox="0 0 1200 260" font-family="Helvetica, Arial, sans-serif">
<rect x="0" y="0" width="1200" height="260" fill="#FFFFFF"/>
<path d="M 538 101.0 A 62 17 0 0 0 662 101.0 L 662 159.0 A 62 17 0 0 1 538 159.0 Z" fill="#DBEAFE" stroke="#1E2530" stroke-width="2"/>
<ellipse cx="600" cy="101.0" rx="62" ry="17" fill="#DBEAFE" stroke="#1E2530" stroke-width="2"/>
<path d="M 538 120.33333333333333 A 62 17 0 0 0 662 120.33333333333333" fill="none" stroke="#1E2530" stroke-width="1.4" opacity="0.55"/>
<path d="M 538 139.66666666666666 A 62 17 0 0 0 662 139.66666666666666" fill="none" stroke="#1E2530" stroke-width="1.4" opacity="0.55"/>
<text x="600" y="202.0" font-family="Helvetica, Arial, sans-serif" font-size="13" font-weight="700" fill="#1E2530" text-anchor="middle">ORACLE DATABASE</text>
<circle cx="141" cy="64" r="6" fill="none" stroke="#1E2530" stroke-width="1.8"/>
<path d="M 132 84 Q 141 68 150 84" fill="none" stroke="#1E2530" stroke-width="1.8"/>
<circle cx="159" cy="64" r="6" fill="none" stroke="#1E2530" stroke-width="1.8"/>
<path d="M 150 84 Q 159 68 168 84" fill="none" stroke="#1E2530" stroke-width="1.8"/>
<text x="150" y="104" font-family="Helvetica, Arial, sans-serif" font-size="12.5" font-weight="700" fill="#1E2530" text-anchor="middle">RH</text>
<text x="150" y="120" font-family="Helvetica, Arial, sans-serif" font-size="10.5" fill="#6B7280" text-anchor="middle">Employes &amp; paie</text>
<path d="M 170 75 L 534 112" stroke="#2563EB" stroke-width="1.4" stroke-dasharray="2,4"/>
<path d="M 330 54 L 344 61 L 344 74 Q 344 86 330 90 Q 316 86 316 74 L 316 61 Z" fill="none" stroke="#1E2530" stroke-width="1.8"/><path d="M 325 72 L 329 77 L 337 65" fill="none" stroke="#1E2530" stroke-width="1.8"/>
<text x="330" y="104" font-family="Helvetica, Arial, sans-serif" font-size="12.5" font-weight="700" fill="#1E2530" text-anchor="middle">Securite</text>
<text x="330" y="120" font-family="Helvetica, Arial, sans-serif" font-size="10.5" fill="#6B7280" text-anchor="middle">Roles &amp; privileges</text>
<path d="M 350 75 L 534 112" stroke="#2563EB" stroke-width="1.4" stroke-dasharray="2,4"/>
<rect x="854" y="66" width="14" height="14" fill="none" stroke="#1E2530" stroke-width="1.8"/>
<rect x="872" y="58" width="14" height="14" fill="none" stroke="#1E2530" stroke-width="1.8"/>
<text x="870" y="104" font-family="Helvetica, Arial, sans-serif" font-size="12.5" font-weight="700" fill="#1E2530" text-anchor="middle">Stock</text>
<text x="870" y="120" font-family="Helvetica, Arial, sans-serif" font-size="10.5" fill="#6B7280" text-anchor="middle">Entrepots &amp; alertes</text>
<path d="M 850 75 L 666 112" stroke="#2563EB" stroke-width="1.4" stroke-dasharray="2,4"/>
<path d="M 1034 60 L 1040 60 L 1046 78 L 1064 78 L 1068 66 L 1043 66" fill="none" stroke="#1E2530" stroke-width="1.8"/>
<circle cx="1048" cy="85" r="2.6" fill="#1E2530"/>
<circle cx="1061" cy="85" r="2.6" fill="#1E2530"/>
<text x="1050" y="104" font-family="Helvetica, Arial, sans-serif" font-size="12.5" font-weight="700" fill="#1E2530" text-anchor="middle">Ventes</text>
<text x="1050" y="120" font-family="Helvetica, Arial, sans-serif" font-size="10.5" fill="#6B7280" text-anchor="middle">Commandes &amp; clients</text>
<path d="M 1030 75 L 666 112" stroke="#2563EB" stroke-width="1.4" stroke-dasharray="2,4"/>
<ellipse cx="240" cy="208" rx="14" ry="6" fill="none" stroke="#1E2530" stroke-width="1.8"/>
<ellipse cx="240" cy="200" rx="14" ry="6" fill="none" stroke="#1E2530" stroke-width="1.8"/>
<ellipse cx="240" cy="192" rx="14" ry="6" fill="none" stroke="#1E2530" stroke-width="1.8"/>
<text x="240" y="234" font-family="Helvetica, Arial, sans-serif" font-size="12.5" font-weight="700" fill="#1E2530" text-anchor="middle">Finance</text>
<text x="240" y="250" font-family="Helvetica, Arial, sans-serif" font-size="10.5" fill="#6B7280" text-anchor="middle">Budget &amp; transactions</text>
<path d="M 262 200 L 534 148" stroke="#2563EB" stroke-width="1.4" stroke-dasharray="2,4"/>
<path d="M 945 212 L 945 188 M 945 212 L 975 212" stroke="#1E2530" stroke-width="1.8" fill="none"/>
<rect x="948" y="200" width="6" height="12" fill="#1E2530" opacity="0.85"/>
<rect x="957" y="192" width="6" height="20" fill="#1E2530" opacity="0.85"/>
<rect x="966" y="204" width="6" height="8" fill="#1E2530" opacity="0.85"/>
<text x="960" y="234" font-family="Helvetica, Arial, sans-serif" font-size="12.5" font-weight="700" fill="#1E2530" text-anchor="middle">Audit</text>
<text x="960" y="250" font-family="Helvetica, Arial, sans-serif" font-size="10.5" fill="#6B7280" text-anchor="middle">Tracabilite &amp; rapports</text>
<path d="M 938 200 L 666 148" stroke="#2563EB" stroke-width="1.4" stroke-dasharray="2,4"/>
<text x="40" y="40" font-family="Helvetica, Arial, sans-serif" font-size="20" font-weight="700" fill="#1E2530">Oracle ERP — DB Administration</text>
<text x="40" y="60" font-family="Helvetica, Arial, sans-serif" font-size="12" fill="#6B7280">Modelisation · PL/SQL · Securite · Optimisation · Sauvegarde</text>
</svg>